<svg xmlns="http://www.w3.org/2000/svg" width="192" height="30" fill="none" xmlns:v="https://vecta.io/nano"><path d="M41.169 8.317h4.755c1.23 0 2.232.387 3.006 1.16.779.773 1.169 1.775 1.169 3.006 0 1.236-.395 2.244-1.186 3.023-.785.774-1.802 1.16-3.05 1.16h-2.725V21h-1.969V8.317zm1.969 1.661v5.036h2.259c.855 0 1.518-.22 1.986-.659s.703-1.061.703-1.863c0-.797-.234-1.415-.703-1.854-.463-.44-1.122-.659-1.978-.659h-2.268zM51.593 21v-9.246h1.811v1.573h.044c.152-.539.425-.961.817-1.266s.861-.457 1.406-.457c.182 0 .398.023.65.07v1.767c-.17-.07-.454-.105-.852-.105-.609 0-1.093.191-1.45.571-.352.381-.527.899-.527 1.556V21h-1.898zm12.665-1.107c-.797.855-1.86 1.283-3.19 1.283s-2.394-.428-3.19-1.283c-.797-.861-1.195-2.033-1.195-3.516 0-1.477.398-2.643 1.195-3.498.797-.861 1.86-1.292 3.19-1.292s2.394.431 3.19 1.292c.797.856 1.195 2.021 1.195 3.498 0 1.482-.398 2.654-1.195 3.516zm-3.19-.281c.756 0 1.354-.284 1.793-.852s.659-1.362.659-2.382c0-1.014-.223-1.805-.668-2.373-.439-.568-1.034-.852-1.784-.852s-1.348.284-1.793.852c-.439.568-.659 1.359-.659 2.373 0 1.02.22 1.813.659 2.382.445.568 1.043.852 1.793.852zm11.698-2.9H67v-1.714h5.766v1.714zm2.188-8.394h4.755c1.23 0 2.232.387 3.006 1.16.779.773 1.169 1.775 1.169 3.006 0 1.236-.395 2.244-1.186 3.023-.785.774-1.802 1.16-3.05 1.16h-2.725V21h-1.969V8.317zm1.969 1.661v5.036h2.259c.855 0 1.518-.22 1.986-.659s.703-1.061.703-1.863c0-.797-.234-1.415-.703-1.854-.463-.44-1.122-.659-1.978-.659h-2.267zM85.378 21v-9.246h1.811v1.573h.044c.152-.539.425-.961.817-1.266s.861-.457 1.406-.457a3.63 3.63 0 0 1 .65.07v1.767c-.17-.07-.454-.105-.852-.105-.609 0-1.093.191-1.45.571-.352.381-.527.899-.527 1.556V21h-1.898zm12.665-1.107c-.797.855-1.86 1.283-3.19 1.283s-2.394-.428-3.19-1.283c-.797-.861-1.195-2.033-1.195-3.516 0-1.477.398-2.643 1.195-3.498.797-.861 1.86-1.292 3.19-1.292s2.394.431 3.191 1.292c.797.856 1.195 2.021 1.195 3.498 0 1.482-.398 2.654-1.195 3.516zm-3.19-.281c.756 0 1.354-.284 1.793-.852s.659-1.362.659-2.382c0-1.014-.223-1.805-.668-2.373-.439-.568-1.034-.852-1.784-.852s-1.348.284-1.793.852c-.44.568-.659 1.359-.659 2.373 0 1.02.22 1.813.659 2.382.445.568 1.043.852 1.793.852zM100.706 21v-9.246h1.811v1.556h.044a2.67 2.67 0 0 1 1.01-1.248c.463-.311 1.002-.466 1.617-.466.639 0 1.181.158 1.626.475.452.316.771.762.958 1.336h.044a2.87 2.87 0 0 1 1.125-1.327c.516-.322 1.102-.483 1.758-.483.914 0 1.647.278 2.197.835s.827 1.295.827 2.215V21h-1.908v-5.898c0-.598-.155-1.06-.465-1.389-.305-.328-.739-.492-1.301-.492s-1.023.188-1.38.563-.527.855-.527 1.441V21h-1.864v-6.038c0-.533-.158-.955-.474-1.266-.317-.316-.742-.475-1.275-.475-.562 0-1.025.196-1.388.589-.358.387-.537.879-.537 1.477V21h-1.898zm22.017-1.107c-.797.855-1.861 1.283-3.191 1.283s-2.393-.428-3.19-1.283c-.797-.861-1.196-2.033-1.196-3.516 0-1.477.399-2.643 1.196-3.498.797-.861 1.86-1.292 3.19-1.292s2.394.431 3.191 1.292c.797.856 1.195 2.021 1.195 3.498 0 1.482-.398 2.654-1.195 3.516zm-3.191-.281c.756 0 1.354-.284 1.793-.852s.659-1.362.659-2.382c0-1.014-.222-1.805-.668-2.373-.439-.568-1.034-.852-1.784-.852s-1.347.284-1.793.852c-.439.568-.659 1.359-.659 2.373 0 1.02.22 1.813.659 2.382.446.568 1.043.852 1.793.852zm6.407-10.046h1.908v2.188h1.757v1.503h-1.757v5.098c0 .398.091.691.272.879s.466.281.853.281c.281 0 .489-.015.624-.044v1.503c-.235.059-.586.088-1.055.088-.932 0-1.6-.19-2.004-.571-.398-.387-.598-1.028-.598-1.925v-5.309h-1.344v-1.503h1.344V9.565zM131.23 21v-9.246h1.899V21h-1.899zm1.732-10.916a1.08 1.08 0 0 1-.782.316c-.305 0-.566-.105-.783-.316-.21-.211-.316-.466-.316-.765 0-.305.106-.562.316-.773.217-.211.478-.316.783-.316s.571.105.782.316c.217.211.325.469.325.773 0 .299-.108.554-.325.765zm9.272 9.809c-.796.855-1.86 1.283-3.19 1.283s-2.394-.428-3.19-1.283c-.797-.861-1.196-2.033-1.196-3.516 0-1.477.399-2.643 1.196-3.498.796-.861 1.86-1.292 3.19-1.292s2.394.431 3.19 1.292c.797.856 1.196 2.021 1.196 3.498 0 1.482-.399 2.654-1.196 3.516zm-3.19-.281c.756 0 1.353-.284 1.793-.852s.659-1.362.659-2.382c0-1.014-.223-1.805-.668-2.373-.439-.568-1.034-.852-1.784-.852s-1.348.284-1.793.852c-.439.568-.659 1.359-.659 2.373 0 1.02.22 1.813.659 2.382.445.568 1.043.852 1.793.852zM144.897 21v-9.246h1.811v1.547h.044c.258-.539.633-.958 1.125-1.257s1.087-.448 1.784-.448c1.014 0 1.802.305 2.364.914.563.604.844 1.438.844 2.505V21h-1.907v-5.616c0-.703-.167-1.236-.501-1.6-.328-.369-.817-.554-1.468-.554-.668 0-1.201.217-1.599.65s-.598 1.011-.598 1.731V21h-1.899zm12.05-.237a1.11 1.11 0 0 1-.817.334c-.322 0-.595-.111-.818-.334s-.333-.495-.333-.817.111-.595.333-.817.496-.334.818-.334a1.11 1.11 0 0 1 1.151 1.151 1.11 1.11 0 0 1-.334.817zm9.932-5.827h-1.811a2.16 2.16 0 0 0-.72-1.274c-.375-.328-.859-.492-1.451-.492-.738 0-1.33.29-1.775.87-.439.574-.659 1.354-.659 2.338 0 1.002.22 1.787.659 2.355.445.568 1.043.853 1.793.853.58 0 1.055-.149 1.424-.448.375-.305.618-.727.729-1.266h1.828c-.099.99-.515 1.79-1.248 2.399-.726.604-1.643.905-2.751.905-1.33 0-2.39-.428-3.181-1.283-.791-.861-1.187-2.033-1.187-3.516 0-1.465.396-2.628 1.187-3.489.791-.867 1.846-1.301 3.164-1.301 1.148 0 2.08.322 2.795.967.715.639 1.116 1.433 1.204 2.382zm8.525 4.957c-.797.855-1.86 1.283-3.19 1.283s-2.394-.428-3.191-1.283c-.796-.861-1.195-2.033-1.195-3.516 0-1.477.399-2.643 1.195-3.498.797-.861 1.861-1.292 3.191-1.292s2.393.431 3.19 1.292c.797.856 1.196 2.021 1.196 3.498 0 1.482-.399 2.654-1.196 3.516zm-3.19-.281c.756 0 1.353-.284 1.793-.852s.659-1.362.659-2.382c0-1.014-.223-1.805-.668-2.373-.439-.568-1.034-.852-1.784-.852s-1.348.284-1.793.852c-.44.568-.659 1.359-.659 2.373 0 1.02.219 1.813.659 2.382.445.568 1.043.852 1.793.852zM178.067 21v-9.246h1.811v1.556h.044a2.68 2.68 0 0 1 1.011-1.248c.463-.311 1.002-.466 1.617-.466.638 0 1.18.158 1.626.475.451.316.77.762.958 1.336h.044a2.86 2.86 0 0 1 1.125-1.327c.515-.322 1.101-.483 1.758-.483.914 0 1.646.278 2.197.835s.826 1.295.826 2.215V21h-1.907v-5.898c0-.598-.156-1.06-.466-1.389s-.738-.492-1.301-.492-1.022.188-1.38.563c-.351.375-.527.855-.527 1.441V21h-1.863v-6.038c0-.533-.159-.955-.475-1.266-.316-.316-.741-.475-1.274-.475-.563 0-1.026.196-1.389.589-.357.387-.536.879-.536 1.477V21h-1.899z" fill="#282b31"/><circle cx="15" cy="15" r="15" fill="#4447e2"/><path fill-rule="evenodd" d="M22.494 10.802c-.002-.06-.019-.117-.035-.174-.012-.048-.018-.098-.039-.142s-.052-.078-.08-.118c-.035-.051-.067-.102-.112-.143-.008-.008-.011-.018-.019-.024-.03-.026-.067-.035-.099-.056-.05-.033-.099-.066-.156-.088s-.111-.025-.168-.033c-.04-.006-.076-.024-.118-.024H17.5c-.461 0-.833.373-.833.833s.373.833.833.833h2.355l-3.363 3.923-3.563-2.137a.83.83 0 0 0-1.069.181l-4.167 5c-.294.353-.247.879.107 1.173a.83.83 0 0 0 1.174-.107l3.71-4.452 3.554 2.133c.349.209.797.136 1.062-.172l3.534-4.123V15c0 .46.372.833.833.833s.833-.373.833-.833v-4.167c0-.011-.006-.02-.007-.031z" fill="#fff"/><mask id="A" mask-type="alpha" maskUnits="userSpaceOnUse" x="7" y="10" width="16" height="10"><path fill-rule="evenodd" d="M22.494 10.802c-.002-.06-.019-.117-.035-.174-.012-.048-.018-.098-.039-.142s-.052-.078-.08-.118c-.035-.051-.067-.102-.112-.143-.008-.008-.011-.018-.019-.024-.03-.026-.067-.035-.099-.056-.05-.033-.099-.066-.156-.088s-.111-.025-.168-.033c-.04-.006-.076-.024-.118-.024H17.5c-.461 0-.833.373-.833.833s.373.833.833.833h2.355l-3.363 3.923-3.563-2.137a.83.83 0 0 0-1.069.181l-4.167 5c-.294.353-.247.879.107 1.173a.83.83 0 0 0 1.174-.107l3.71-4.452 3.554 2.133c.349.209.797.136 1.062-.172l3.534-4.123V15c0 .46.372.833.833.833s.833-.373.833-.833v-4.167c0-.011-.006-.02-.007-.031z" fill="#fff"/></mask><g mask="url(#A)"><path fill="#fff" d="M5 5h20v20H5z"/></g></svg>